<svg height="400" width="400"><rect width="100%" height="100%" fill="white" /><circle cx="129.99999999999997" cy="100" r="5" stroke="black" stroke-width="1" fill="red" /><circle cx="160" cy="100" r="5" stroke="black" stroke-width="1" fill="red" /><circle cx="190" cy="100" r="5" stroke="black" stroke-width="1" fill="red" /><circle cx="219.99999999999997" cy="100" r="5" stroke="black" stroke-width="1" fill="red" /><circle cx="250" cy="100" r="5" stroke="black" stroke-width="1" fill="red" /><circle cx="250" cy="70" r="5" stroke="black" stroke-width="1" fill="red" /><circle cx="250" cy="39.99999999999999" r="5" stroke="black" stroke-width="1" fill="red" /><circle cx="219.99999999999997" cy="39.99999999999999" r="5" stroke="black" stroke-width="1" fill="red" /><circle cx="219.99999999999997" cy="70" r="5" stroke="black" stroke-width="1" fill="red" /><circle cx="190" cy="70" r="5" stroke="black" stroke-width="1" fill="red" /><circle cx="160" cy="70" r="5" stroke="black" stroke-width="1" fill="red" /><polyline points="129.99999999999997,100 160,100 190,100 219.99999999999997,100 250,100 250,70 250,39.99999999999999 219.99999999999997,39.99999999999999 219.99999999999997,70 190,70 160,70 " fill="none" stroke="red" stroke-width="2"/><text x="129.99999999999997" y="93" 
            font-size="12" font-weight="700" fill="red" text-anchor="middle">
            j=0, d=0
            </text><circle cx="129.99999999999997" cy="70" r="5" stroke="black" stroke-width="1" fill="green" /><circle cx="129.99999999999997" cy="39.99999999999999" r="5" stroke="black" stroke-width="1" fill="green" /><circle cx="100" cy="39.99999999999999" r="5" stroke="black" stroke-width="1" fill="green" /><circle cx="100" cy="70" r="5" stroke="black" stroke-width="1" fill="green" /><circle cx="70" cy="70" r="5" stroke="black" stroke-width="1" fill="green" /><circle cx="70" cy="39.99999999999999" r="5" stroke="black" stroke-width="1" fill="green" /><circle cx="39.99999999999999" cy="39.99999999999999" r="5" stroke="black" stroke-width="1" fill="green" /><circle cx="39.99999999999999" cy="70" r="5" stroke="black" stroke-width="1" fill="green" /><circle cx="39.99999999999999" cy="100" r="5" stroke="black" stroke-width="1" fill="green" /><circle cx="70" cy="100" r="5" stroke="black" stroke-width="1" fill="green" /><circle cx="100" cy="100" r="5" stroke="black" stroke-width="1" fill="green" /><polyline points="129.99999999999997,70 129.99999999999997,39.99999999999999 100,39.99999999999999 100,70 70,70 70,39.99999999999999 39.99999999999999,39.99999999999999 39.99999999999999,70 39.99999999999999,100 70,100 100,100 " fill="none" stroke="green" stroke-width="2"/><text x="129.99999999999997" y="63" 
            font-size="12" font-weight="700" fill="green" text-anchor="middle">
            j=0, d=0
            </text><circle cx="280" cy="100" r="5" stroke="black" stroke-width="1" fill="blue" /><circle cx="309.99999999999994" cy="100" r="5" stroke="black" stroke-width="1" fill="blue" /><circle cx="309.99999999999994" cy="70" r="5" stroke="black" stroke-width="1" fill="blue" /><circle cx="309.99999999999994" cy="39.99999999999999" r="5" stroke="black" stroke-width="1" fill="blue" /><circle cx="280" cy="39.99999999999999" r="5" stroke="black" stroke-width="1" fill="blue" /><polyline points="280,100 309.99999999999994,100 309.99999999999994,70 309.99999999999994,39.99999999999999 280,39.99999999999999 " fill="none" stroke="blue" stroke-width="2"/><text x="280" y="93" 
            font-size="12" font-weight="700" fill="blue" text-anchor="middle">
            j=0, d=0
            </text><text x="50" y="350" 
        font-size="12" font-weight="700" text-anchor="middle">
        j=0, d=0
        </text></svg>