<svg height="400" width="400"><rect width="100%" height="100%" fill="white" /><circle cx="19.999999999999996" cy="19.999999999999996" r="5" stroke="black" stroke-width="1" fill="red" /><circle cx="19.999999999999996" cy="79.99999999999999" r="5" stroke="black" stroke-width="1" fill="red" /><circle cx="19.999999999999996" cy="109.99999999999999" r="5" stroke="black" stroke-width="1" fill="red" /><circle cx="39.99999999999999" cy="109.99999999999999" r="5" stroke="black" stroke-width="1" fill="red" /><circle cx="39.99999999999999" cy="79.99999999999999" r="5" stroke="black" stroke-width="1" fill="red" /><circle cx="60.00000000000001" cy="79.99999999999999" r="5" stroke="black" stroke-width="1" fill="red" /><circle cx="80" cy="79.99999999999999" r="5" stroke="black" stroke-width="1" fill="red" /><circle cx="100" cy="50" r="5" stroke="black" stroke-width="1" fill="red" /><circle cx="120" cy="50" r="5" stroke="black" stroke-width="1" fill="red" /><circle cx="120" cy="19.999999999999996" r="5" stroke="black" stroke-width="1" fill="red" /><circle cx="100" cy="19.999999999999996" r="5" stroke="black" stroke-width="1" fill="red" /><circle cx="80" cy="19.999999999999996" r="5" stroke="black" stroke-width="1" fill="red" /><circle cx="60.00000000000001" cy="19.999999999999996" r="5" stroke="black" stroke-width="1" fill="red" /><circle cx="60.00000000000001" cy="50" r="5" stroke="black" stroke-width="1" fill="red" /><circle cx="80" cy="50" r="5" stroke="black" stroke-width="1" fill="red" /><polyline points="19.999999999999996,19.999999999999996 19.999999999999996,79.99999999999999 19.999999999999996,109.99999999999999 39.99999999999999,109.99999999999999 39.99999999999999,79.99999999999999 60.00000000000001,79.99999999999999 80,79.99999999999999 100,50 120,50 120,19.999999999999996 100,19.999999999999996 80,19.999999999999996 60.00000000000001,19.999999999999996 60.00000000000001,50 80,50 " fill="none" stroke="red" stroke-width="2"/><text x="14.999999999999996" y="12.999999999999996" font-size="10" font-weight="700" fill="red">n=15</text><circle cx="180" cy="19.999999999999996" r="5" stroke="black" stroke-width="1" fill="green" /><circle cx="160" cy="19.999999999999996" r="5" stroke="black" stroke-width="1" fill="green" /><circle cx="140" cy="19.999999999999996" r="5" stroke="black" stroke-width="1" fill="green" /><circle cx="160" cy="50" r="5" stroke="black" stroke-width="1" fill="green" /><circle cx="140" cy="50" r="5" stroke="black" stroke-width="1" fill="green" /><circle cx="120" cy="79.99999999999999" r="5" stroke="black" stroke-width="1" fill="green" /><circle cx="140" cy="79.99999999999999" r="5" stroke="black" stroke-width="1" fill="green" /><circle cx="160" cy="79.99999999999999" r="5" stroke="black" stroke-width="1" fill="green" /><circle cx="180" cy="79.99999999999999" r="5" stroke="black" stroke-width="1" fill="green" /><circle cx="180" cy="50" r="5" stroke="black" stroke-width="1" fill="green" /><circle cx="200" cy="50" r="5" stroke="black" stroke-width="1" fill="green" /><circle cx="200" cy="19.999999999999996" r="5" stroke="black" stroke-width="1" fill="green" /><circle cx="220.00000000000003" cy="19.999999999999996" r="5" stroke="black" stroke-width="1" fill="green" /><circle cx="240.00000000000003" cy="19.999999999999996" r="5" stroke="black" stroke-width="1" fill="green" /><circle cx="260.00000000000006" cy="19.999999999999996" r="5" stroke="black" stroke-width="1" fill="green" /><polyline points="180,19.999999999999996 160,19.999999999999996 140,19.999999999999996 160,50 140,50 120,79.99999999999999 140,79.99999999999999 160,79.99999999999999 180,79.99999999999999 180,50 200,50 200,19.999999999999996 220.00000000000003,19.999999999999996 240.00000000000003,19.999999999999996 260.00000000000006,19.999999999999996 " fill="none" stroke="green" stroke-width="2"/><text x="175" y="12.999999999999996" font-size="10" font-weight="700" fill="green">n=15</text><circle cx="60.00000000000001" cy="140" r="5" stroke="black" stroke-width="1" fill="blue" /><circle cx="60.00000000000001" cy="109.99999999999999" r="5" stroke="black" stroke-width="1" fill="blue" /><circle cx="80" cy="109.99999999999999" r="5" stroke="black" stroke-width="1" fill="blue" /><circle cx="100" cy="79.99999999999999" r="5" stroke="black" stroke-width="1" fill="blue" /><circle cx="100" cy="109.99999999999999" r="5" stroke="black" stroke-width="1" fill="blue" /><circle cx="80" cy="140" r="5" stroke="black" stroke-width="1" fill="blue" /><circle cx="100" cy="140" r="5" stroke="black" stroke-width="1" fill="blue" /><circle cx="100" cy="170" r="5" stroke="black" stroke-width="1" fill="blue" /><circle cx="100" cy="199.99999999999997" r="5" stroke="black" stroke-width="1" fill="blue" /><circle cx="80" cy="170" r="5" stroke="black" stroke-width="1" fill="blue" /><circle cx="60.00000000000001" cy="170" r="5" stroke="black" stroke-width="1" fill="blue" /><circle cx="39.99999999999999" cy="170" r="5" stroke="black" stroke-width="1" fill="blue" /><circle cx="19.999999999999996" cy="170" r="5" stroke="black" stroke-width="1" fill="blue" /><circle cx="19.999999999999996" cy="140" r="5" stroke="black" stroke-width="1" fill="blue" /><circle cx="39.99999999999999" cy="140" r="5" stroke="black" stroke-width="1" fill="blue" /><polyline points="60.00000000000001,140 60.00000000000001,109.99999999999999 80,109.99999999999999 100,79.99999999999999 100,109.99999999999999 80,140 100,140 100,170 100,199.99999999999997 80,170 60.00000000000001,170 39.99999999999999,170 19.999999999999996,170 19.999999999999996,140 39.99999999999999,140 " fill="none" stroke="blue" stroke-width="2"/><text x="55.00000000000001" y="133" font-size="10" font-weight="700" fill="blue">n=15</text><circle cx="220.00000000000003" cy="109.99999999999999" r="5" stroke="black" stroke-width="1" fill="orange" /><circle cx="240.00000000000003" cy="109.99999999999999" r="5" stroke="black" stroke-width="1" fill="orange" /><circle cx="220.00000000000003" cy="140" r="5" stroke="black" stroke-width="1" fill="orange" /><circle cx="200" cy="140" r="5" stroke="black" stroke-width="1" fill="orange" /><circle cx="220.00000000000003" cy="170" r="5" stroke="black" stroke-width="1" fill="orange" /><circle cx="240.00000000000003" cy="140" r="5" stroke="black" stroke-width="1" fill="orange" /><circle cx="260.00000000000006" cy="140" r="5" stroke="black" stroke-width="1" fill="orange" /><circle cx="260.00000000000006" cy="109.99999999999999" r="5" stroke="black" stroke-width="1" fill="orange" /><circle cx="260.00000000000006" cy="79.99999999999999" r="5" stroke="black" stroke-width="1" fill="orange" /><circle cx="240.00000000000003" cy="79.99999999999999" r="5" stroke="black" stroke-width="1" fill="orange" /><circle cx="220.00000000000003" cy="79.99999999999999" r="5" stroke="black" stroke-width="1" fill="orange" /><circle cx="200" cy="79.99999999999999" r="5" stroke="black" stroke-width="1" fill="orange" /><circle cx="200" cy="109.99999999999999" r="5" stroke="black" stroke-width="1" fill="orange" /><circle cx="180" cy="140" r="5" stroke="black" stroke-width="1" fill="orange" /><circle cx="160" cy="140" r="5" stroke="black" stroke-width="1" fill="orange" /><polyline points="220.00000000000003,109.99999999999999 240.00000000000003,109.99999999999999 220.00000000000003,140 200,140 220.00000000000003,170 240.00000000000003,140 260.00000000000006,140 260.00000000000006,109.99999999999999 260.00000000000006,79.99999999999999 240.00000000000003,79.99999999999999 220.00000000000003,79.99999999999999 200,79.99999999999999 200,109.99999999999999 180,140 160,140 " fill="none" stroke="orange" stroke-width="2"/><text x="215.00000000000003" y="102.99999999999999" font-size="10" font-weight="700" fill="orange">n=15</text><circle cx="220.00000000000003" cy="229.99999999999997" r="5" stroke="black" stroke-width="1" fill="purple" /><circle cx="240.00000000000003" cy="229.99999999999997" r="5" stroke="black" stroke-width="1" fill="purple" /><circle cx="260.00000000000006" cy="229.99999999999997" r="5" stroke="black" stroke-width="1" fill="purple" /><circle cx="260.00000000000006" cy="199.99999999999997" r="5" stroke="black" stroke-width="1" fill="purple" /><circle cx="260.00000000000006" cy="170" r="5" stroke="black" stroke-width="1" fill="purple" /><circle cx="240.00000000000003" cy="170" r="5" stroke="black" stroke-width="1" fill="purple" /><circle cx="240.00000000000003" cy="199.99999999999997" r="5" stroke="black" stroke-width="1" fill="purple" /><circle cx="220.00000000000003" cy="199.99999999999997" r="5" stroke="black" stroke-width="1" fill="purple" /><circle cx="200" cy="199.99999999999997" r="5" stroke="black" stroke-width="1" fill="purple" /><circle cx="200" cy="229.99999999999997" r="5" stroke="black" stroke-width="1" fill="purple" /><circle cx="180" cy="259.99999999999994" r="5" stroke="black" stroke-width="1" fill="purple" /><circle cx="200" cy="259.99999999999994" r="5" stroke="black" stroke-width="1" fill="purple" /><circle cx="220.00000000000003" cy="259.99999999999994" r="5" stroke="black" stroke-width="1" fill="purple" /><circle cx="240.00000000000003" cy="259.99999999999994" r="5" stroke="black" stroke-width="1" fill="purple" /><circle cx="260.00000000000006" cy="259.99999999999994" r="5" stroke="black" stroke-width="1" fill="purple" /><polyline points="220.00000000000003,229.99999999999997 240.00000000000003,229.99999999999997 260.00000000000006,229.99999999999997 260.00000000000006,199.99999999999997 260.00000000000006,170 240.00000000000003,170 240.00000000000003,199.99999999999997 220.00000000000003,199.99999999999997 200,199.99999999999997 200,229.99999999999997 180,259.99999999999994 200,259.99999999999994 220.00000000000003,259.99999999999994 240.00000000000003,259.99999999999994 260.00000000000006,259.99999999999994 " fill="none" stroke="purple" stroke-width="2"/><text x="215.00000000000003" y="222.99999999999997" font-size="10" font-weight="700" fill="purple">n=15</text><circle cx="60.00000000000001" cy="229.99999999999997" r="5" stroke="black" stroke-width="1" fill="gold" /><circle cx="60.00000000000001" cy="259.99999999999994" r="5" stroke="black" stroke-width="1" fill="gold" /><circle cx="80" cy="259.99999999999994" r="5" stroke="black" stroke-width="1" fill="gold" /><circle cx="100" cy="259.99999999999994" r="5" stroke="black" stroke-width="1" fill="gold" /><circle cx="100" cy="229.99999999999997" r="5" stroke="black" stroke-width="1" fill="gold" /><circle cx="80" cy="229.99999999999997" r="5" stroke="black" stroke-width="1" fill="gold" /><circle cx="80" cy="199.99999999999997" r="5" stroke="black" stroke-width="1" fill="gold" /><circle cx="60.00000000000001" cy="199.99999999999997" r="5" stroke="black" stroke-width="1" fill="gold" /><circle cx="39.99999999999999" cy="199.99999999999997" r="5" stroke="black" stroke-width="1" fill="gold" /><circle cx="19.999999999999996" cy="199.99999999999997" r="5" stroke="black" stroke-width="1" fill="gold" /><circle cx="19.999999999999996" cy="229.99999999999997" r="5" stroke="black" stroke-width="1" fill="gold" /><circle cx="39.99999999999999" cy="229.99999999999997" r="5" stroke="black" stroke-width="1" fill="gold" /><circle cx="39.99999999999999" cy="259.99999999999994" r="5" stroke="black" stroke-width="1" fill="gold" /><circle cx="19.999999999999996" cy="259.99999999999994" r="5" stroke="black" stroke-width="1" fill="gold" /><polyline points="60.00000000000001,229.99999999999997 60.00000000000001,259.99999999999994 80,259.99999999999994 100,259.99999999999994 100,229.99999999999997 80,229.99999999999997 80,199.99999999999997 60.00000000000001,199.99999999999997 39.99999999999999,199.99999999999997 19.999999999999996,199.99999999999997 19.999999999999996,229.99999999999997 39.99999999999999,229.99999999999997 39.99999999999999,259.99999999999994 19.999999999999996,259.99999999999994 " fill="none" stroke="gold" stroke-width="2"/><text x="55.00000000000001" y="222.99999999999997" font-size="10" font-weight="700" fill="gold">n=14</text><circle cx="160" cy="199.99999999999997" r="5" stroke="black" stroke-width="1" fill="hotpink" /><circle cx="180" cy="229.99999999999997" r="5" stroke="black" stroke-width="1" fill="hotpink" /><circle cx="180" cy="199.99999999999997" r="5" stroke="black" stroke-width="1" fill="hotpink" /><circle cx="200" cy="170" r="5" stroke="black" stroke-width="1" fill="hotpink" /><circle cx="180" cy="170" r="5" stroke="black" stroke-width="1" fill="hotpink" /><circle cx="160" cy="170" r="5" stroke="black" stroke-width="1" fill="hotpink" /><circle cx="140" cy="140" r="5" stroke="black" stroke-width="1" fill="hotpink" /><circle cx="140" cy="170" r="5" stroke="black" stroke-width="1" fill="hotpink" /><circle cx="140" cy="199.99999999999997" r="5" stroke="black" stroke-width="1" fill="hotpink" /><circle cx="140" cy="229.99999999999997" r="5" stroke="black" stroke-width="1" fill="hotpink" /><circle cx="160" cy="229.99999999999997" r="5" stroke="black" stroke-width="1" fill="hotpink" /><circle cx="160" cy="259.99999999999994" r="5" stroke="black" stroke-width="1" fill="hotpink" /><circle cx="140" cy="259.99999999999994" r="5" stroke="black" stroke-width="1" fill="hotpink" /><polyline points="160,199.99999999999997 180,229.99999999999997 180,199.99999999999997 200,170 180,170 160,170 140,140 140,170 140,199.99999999999997 140,229.99999999999997 160,229.99999999999997 160,259.99999999999994 140,259.99999999999994 " fill="none" stroke="hotpink" stroke-width="2"/><text x="155" y="192.99999999999997" font-size="10" font-weight="700" fill="hotpink">n=13</text></svg>