<svg height="400" width="400"><rect width="100%" height="100%" fill="white" /><circle cx="160" cy="160" r="5" stroke="black" stroke-width="1" fill="red" /><circle cx="160" cy="129.99999999999997" r="5" stroke="black" stroke-width="1" fill="red" /><circle cx="129.99999999999997" cy="129.99999999999997" r="5" stroke="black" stroke-width="1" fill="red" /><circle cx="129.99999999999997" cy="100" r="5" stroke="black" stroke-width="1" fill="red" /><circle cx="160" cy="100" r="5" stroke="black" stroke-width="1" fill="red" /><circle cx="190" cy="100" r="5" stroke="black" stroke-width="1" fill="red" /><circle cx="219.99999999999997" cy="100" r="5" stroke="black" stroke-width="1" fill="red" /><circle cx="250" cy="100" r="5" stroke="black" stroke-width="1" fill="red" /><circle cx="250" cy="70" r="5" stroke="black" stroke-width="1" fill="red" /><circle cx="219.99999999999997" cy="70" r="5" stroke="black" stroke-width="1" fill="red" /><circle cx="219.99999999999997" cy="39.99999999999999" r="5" stroke="black" stroke-width="1" fill="red" /><circle cx="190" cy="39.99999999999999" r="5" stroke="black" stroke-width="1" fill="red" /><circle cx="190" cy="70" r="5" stroke="black" stroke-width="1" fill="red" /><circle cx="160" cy="70" r="5" stroke="black" stroke-width="1" fill="red" /><circle cx="160" cy="39.99999999999999" r="5" stroke="black" stroke-width="1" fill="red" /><circle cx="129.99999999999997" cy="39.99999999999999" r="5" stroke="black" stroke-width="1" fill="red" /><circle cx="129.99999999999997" cy="70" r="5" stroke="black" stroke-width="1" fill="red" /><polyline points="160,160 160,129.99999999999997 129.99999999999997,129.99999999999997 129.99999999999997,100 160,100 190,100 219.99999999999997,100 250,100 250,70 219.99999999999997,70 219.99999999999997,39.99999999999999 190,39.99999999999999 190,70 160,70 160,39.99999999999999 129.99999999999997,39.99999999999999 129.99999999999997,70 " fill="none" stroke="red" stroke-width="2"/><text x="160" y="153" 
            font-size="12" font-weight="700" fill="red" text-anchor="middle">
            j=0, d=0
            </text><circle cx="280" cy="250" r="5" stroke="black" stroke-width="1" fill="green" /><circle cx="280" cy="280" r="5" stroke="black" stroke-width="1" fill="green" /><circle cx="250" cy="280" r="5" stroke="black" stroke-width="1" fill="green" /><circle cx="219.99999999999997" cy="280" r="5" stroke="black" stroke-width="1" fill="green" /><circle cx="219.99999999999997" cy="250" r="5" stroke="black" stroke-width="1" fill="green" /><circle cx="219.99999999999997" cy="219.99999999999997" r="5" stroke="black" stroke-width="1" fill="green" /><circle cx="219.99999999999997" cy="190" r="5" stroke="black" stroke-width="1" fill="green" /><circle cx="250" cy="190" r="5" stroke="black" stroke-width="1" fill="green" /><circle cx="250" cy="219.99999999999997" r="5" stroke="black" stroke-width="1" fill="green" /><circle cx="250" cy="250" r="5" stroke="black" stroke-width="1" fill="green" /><polyline points="280,250 280,280 250,280 219.99999999999997,280 219.99999999999997,250 219.99999999999997,219.99999999999997 219.99999999999997,190 250,190 250,219.99999999999997 250,250 " fill="none" stroke="green" stroke-width="2"/><text x="280" y="243" 
            font-size="12" font-weight="700" fill="green" text-anchor="middle">
            j=0, d=0
            </text><circle cx="100" cy="219.99999999999997" r="5" stroke="black" stroke-width="1" fill="blue" /><circle cx="100" cy="250" r="5" stroke="black" stroke-width="1" fill="blue" /><circle cx="100" cy="280" r="5" stroke="black" stroke-width="1" fill="blue" /><circle cx="129.99999999999997" cy="280" r="5" stroke="black" stroke-width="1" fill="blue" /><circle cx="160" cy="280" r="5" stroke="black" stroke-width="1" fill="blue" /><circle cx="160" cy="250" r="5" stroke="black" stroke-width="1" fill="blue" /><circle cx="129.99999999999997" cy="250" r="5" stroke="black" stroke-width="1" fill="blue" /><circle cx="129.99999999999997" cy="219.99999999999997" r="5" stroke="black" stroke-width="1" fill="blue" /><circle cx="160" cy="219.99999999999997" r="5" stroke="black" stroke-width="1" fill="blue" /><circle cx="160" cy="190" r="5" stroke="black" stroke-width="1" fill="blue" /><polyline points="100,219.99999999999997 100,250 100,280 129.99999999999997,280 160,280 160,250 129.99999999999997,250 129.99999999999997,219.99999999999997 160,219.99999999999997 160,190 " fill="none" stroke="blue" stroke-width="2"/><text x="100" y="212.99999999999997" 
            font-size="12" font-weight="700" fill="blue" text-anchor="middle">
            j=0, d=0
            </text><circle cx="309.99999999999994" cy="100" r="5" stroke="black" stroke-width="1" fill="orange" /><circle cx="309.99999999999994" cy="129.99999999999997" r="5" stroke="black" stroke-width="1" fill="orange" /><circle cx="309.99999999999994" cy="160" r="5" stroke="black" stroke-width="1" fill="orange" /><circle cx="340" cy="160" r="5" stroke="black" stroke-width="1" fill="orange" /><circle cx="340" cy="190" r="5" stroke="black" stroke-width="1" fill="orange" /><circle cx="309.99999999999994" cy="190" r="5" stroke="black" stroke-width="1" fill="orange" /><circle cx="280" cy="190" r="5" stroke="black" stroke-width="1" fill="orange" /><circle cx="280" cy="160" r="5" stroke="black" stroke-width="1" fill="orange" /><circle cx="250" cy="160" r="5" stroke="black" stroke-width="1" fill="orange" /><circle cx="219.99999999999997" cy="160" r="5" stroke="black" stroke-width="1" fill="orange" /><polyline points="309.99999999999994,100 309.99999999999994,129.99999999999997 309.99999999999994,160 340,160 340,190 309.99999999999994,190 280,190 280,160 250,160 219.99999999999997,160 " fill="none" stroke="orange" stroke-width="2"/><text x="309.99999999999994" y="93" 
            font-size="12" font-weight="700" fill="orange" text-anchor="middle">
            j=0, d=0
            </text><circle cx="280" cy="219.99999999999997" r="5" stroke="black" stroke-width="1" fill="purple" /><circle cx="309.99999999999994" cy="219.99999999999997" r="5" stroke="black" stroke-width="1" fill="purple" /><circle cx="340" cy="219.99999999999997" r="5" stroke="black" stroke-width="1" fill="purple" /><circle cx="370" cy="219.99999999999997" r="5" stroke="black" stroke-width="1" fill="purple" /><circle cx="370" cy="250" r="5" stroke="black" stroke-width="1" fill="purple" /><circle cx="370" cy="280" r="5" stroke="black" stroke-width="1" fill="purple" /><circle cx="340" cy="280" r="5" stroke="black" stroke-width="1" fill="purple" /><circle cx="340" cy="250" r="5" stroke="black" stroke-width="1" fill="purple" /><circle cx="309.99999999999994" cy="250" r="5" stroke="black" stroke-width="1" fill="purple" /><circle cx="309.99999999999994" cy="280" r="5" stroke="black" stroke-width="1" fill="purple" /><polyline points="280,219.99999999999997 309.99999999999994,219.99999999999997 340,219.99999999999997 370,219.99999999999997 370,250 370,280 340,280 340,250 309.99999999999994,250 309.99999999999994,280 " fill="none" stroke="purple" stroke-width="2"/><text x="280" y="212.99999999999997" 
            font-size="12" font-weight="700" fill="purple" text-anchor="middle">
            j=0, d=0
            </text><circle cx="39.99999999999999" cy="190" r="5" stroke="black" stroke-width="1" fill="gold" /><circle cx="39.99999999999999" cy="160" r="5" stroke="black" stroke-width="1" fill="gold" /><circle cx="70" cy="129.99999999999997" r="5" stroke="black" stroke-width="1" fill="gold" /><circle cx="39.99999999999999" cy="129.99999999999997" r="5" stroke="black" stroke-width="1" fill="gold" /><circle cx="39.99999999999999" cy="100" r="5" stroke="black" stroke-width="1" fill="gold" /><circle cx="70" cy="100" r="5" stroke="black" stroke-width="1" fill="gold" /><circle cx="100" cy="100" r="5" stroke="black" stroke-width="1" fill="gold" /><circle cx="100" cy="70" r="5" stroke="black" stroke-width="1" fill="gold" /><circle cx="100" cy="39.99999999999999" r="5" stroke="black" stroke-width="1" fill="gold" /><circle cx="39.99999999999999" cy="39.99999999999999" r="5" stroke="black" stroke-width="1" fill="gold" /><polyline points="39.99999999999999,190 39.99999999999999,160 70,129.99999999999997 39.99999999999999,129.99999999999997 39.99999999999999,100 70,100 100,100 100,70 100,39.99999999999999 39.99999999999999,39.99999999999999 " fill="none" stroke="gold" stroke-width="2"/><text x="39.99999999999999" y="183" 
            font-size="12" font-weight="700" fill="gold" text-anchor="middle">
            j=1, d=2
            </text><circle cx="250" cy="39.99999999999999" r="5" stroke="black" stroke-width="1" fill="silver" /><circle cx="280" cy="39.99999999999999" r="5" stroke="black" stroke-width="1" fill="silver" /><circle cx="280" cy="70" r="5" stroke="black" stroke-width="1" fill="silver" /><circle cx="280" cy="100" r="5" stroke="black" stroke-width="1" fill="silver" /><circle cx="309.99999999999994" cy="70" r="5" stroke="black" stroke-width="1" fill="silver" /><circle cx="309.99999999999994" cy="39.99999999999999" r="5" stroke="black" stroke-width="1" fill="silver" /><circle cx="340" cy="39.99999999999999" r="5" stroke="black" stroke-width="1" fill="silver" /><circle cx="370" cy="39.99999999999999" r="5" stroke="black" stroke-width="1" fill="silver" /><polyline points="250,39.99999999999999 280,39.99999999999999 280,70 280,100 309.99999999999994,70 309.99999999999994,39.99999999999999 340,39.99999999999999 370,39.99999999999999 " fill="none" stroke="silver" stroke-width="2"/><text x="250" y="32.99999999999999" 
            font-size="12" font-weight="700" fill="silver" text-anchor="middle">
            j=0, d=2
            </text><circle cx="100" cy="129.99999999999997" r="5" stroke="black" stroke-width="1" fill="brown" /><circle cx="70" cy="160" r="5" stroke="black" stroke-width="1" fill="brown" /><circle cx="70" cy="190" r="5" stroke="black" stroke-width="1" fill="brown" /><circle cx="100" cy="190" r="5" stroke="black" stroke-width="1" fill="brown" /><circle cx="100" cy="160" r="5" stroke="black" stroke-width="1" fill="brown" /><circle cx="129.99999999999997" cy="160" r="5" stroke="black" stroke-width="1" fill="brown" /><circle cx="129.99999999999997" cy="190" r="5" stroke="black" stroke-width="1" fill="brown" /><polyline points="100,129.99999999999997 70,160 70,190 100,190 100,160 129.99999999999997,160 129.99999999999997,190 " fill="none" stroke="brown" stroke-width="2"/><text x="100" y="122.99999999999997" 
            font-size="12" font-weight="700" fill="brown" text-anchor="middle">
            j=0, d=2
            </text><circle cx="39.99999999999999" cy="250" r="5" stroke="black" stroke-width="1" fill="orchid" /><circle cx="39.99999999999999" cy="219.99999999999997" r="5" stroke="black" stroke-width="1" fill="orchid" /><circle cx="70" cy="219.99999999999997" r="5" stroke="black" stroke-width="1" fill="orchid" /><circle cx="70" cy="250" r="5" stroke="black" stroke-width="1" fill="orchid" /><circle cx="70" cy="280" r="5" stroke="black" stroke-width="1" fill="orchid" /><circle cx="39.99999999999999" cy="280" r="5" stroke="black" stroke-width="1" fill="orchid" /><polyline points="39.99999999999999,250 39.99999999999999,219.99999999999997 70,219.99999999999997 70,250 70,280 39.99999999999999,280 " fill="none" stroke="orchid" stroke-width="2"/><text x="39.99999999999999" y="243" 
            font-size="12" font-weight="700" fill="orchid" text-anchor="middle">
            j=0, d=0
            </text><circle cx="370" cy="190" r="5" stroke="black" stroke-width="1" fill="teal" /><circle cx="370" cy="160" r="5" stroke="black" stroke-width="1" fill="teal" /><circle cx="370" cy="129.99999999999997" r="5" stroke="black" stroke-width="1" fill="teal" /><circle cx="340" cy="129.99999999999997" r="5" stroke="black" stroke-width="1" fill="teal" /><circle cx="340" cy="100" r="5" stroke="black" stroke-width="1" fill="teal" /><circle cx="370" cy="100" r="5" stroke="black" stroke-width="1" fill="teal" /><polyline points="370,190 370,160 370,129.99999999999997 340,129.99999999999997 340,100 370,100 " fill="none" stroke="teal" stroke-width="2"/><text x="370" y="183" 
            font-size="12" font-weight="700" fill="teal" text-anchor="middle">
            j=0, d=0
            </text><text x="50" y="350" 
        font-size="12" font-weight="700" text-anchor="middle">
        j=1, d=6
        </text></svg>