<svg height="400" width="400"><rect width="100%" height="100%" fill="white" /><circle cx="220.00000000000003" cy="100" r="5" stroke="black" stroke-width="1" fill="red" /><circle cx="200" cy="100" r="5" stroke="black" stroke-width="1" fill="red" /><circle cx="220.00000000000003" cy="129.99999999999997" r="5" stroke="black" stroke-width="1" fill="red" /><circle cx="220.00000000000003" cy="160" r="5" stroke="black" stroke-width="1" fill="red" /><circle cx="240" cy="129.99999999999997" r="5" stroke="black" stroke-width="1" fill="red" /><circle cx="260" cy="129.99999999999997" r="5" stroke="black" stroke-width="1" fill="red" /><circle cx="280" cy="100" r="5" stroke="black" stroke-width="1" fill="red" /><circle cx="260" cy="100" r="5" stroke="black" stroke-width="1" fill="red" /><circle cx="240" cy="100" r="5" stroke="black" stroke-width="1" fill="red" /><circle cx="220.00000000000003" cy="70" r="5" stroke="black" stroke-width="1" fill="red" /><circle cx="180" cy="100" r="5" stroke="black" stroke-width="1" fill="red" /><circle cx="200" cy="70" r="5" stroke="black" stroke-width="1" fill="red" /><circle cx="200" cy="39.99999999999999" r="5" stroke="black" stroke-width="1" fill="red" /><circle cx="220.00000000000003" cy="39.99999999999999" r="5" stroke="black" stroke-width="1" fill="red" /><circle cx="240" cy="39.99999999999999" r="5" stroke="black" stroke-width="1" fill="red" /><circle cx="260" cy="39.99999999999999" r="5" stroke="black" stroke-width="1" fill="red" /><circle cx="280" cy="39.99999999999999" r="5" stroke="black" stroke-width="1" fill="red" /><polyline points="220.00000000000003,100 200,100 220.00000000000003,129.99999999999997 220.00000000000003,160 240,129.99999999999997 260,129.99999999999997 280,100 260,100 240,100 220.00000000000003,70 180,100 200,70 200,39.99999999999999 220.00000000000003,39.99999999999999 240,39.99999999999999 260,39.99999999999999 280,39.99999999999999 " fill="none" stroke="red" stroke-width="2"/><text x="220.00000000000003" y="93" 
            font-size="12" font-weight="700" fill="red" text-anchor="middle">
            j=0, d=7
            </text><circle cx="140" cy="70" r="5" stroke="black" stroke-width="1" fill="green" /><circle cx="140" cy="39.99999999999999" r="5" stroke="black" stroke-width="1" fill="green" /><circle cx="160" cy="39.99999999999999" r="5" stroke="black" stroke-width="1" fill="green" /><circle cx="180" cy="39.99999999999999" r="5" stroke="black" stroke-width="1" fill="green" /><circle cx="180" cy="70" r="5" stroke="black" stroke-width="1" fill="green" /><circle cx="160" cy="70" r="5" stroke="black" stroke-width="1" fill="green" /><circle cx="160" cy="100" r="5" stroke="black" stroke-width="1" fill="green" /><circle cx="140" cy="100" r="5" stroke="black" stroke-width="1" fill="green" /><circle cx="120" cy="100" r="5" stroke="black" stroke-width="1" fill="green" /><circle cx="120" cy="70" r="5" stroke="black" stroke-width="1" fill="green" /><polyline points="140,70 140,39.99999999999999 160,39.99999999999999 180,39.99999999999999 180,70 160,70 160,100 140,100 120,100 120,70 " fill="none" stroke="green" stroke-width="2"/><text x="140" y="63" 
            font-size="12" font-weight="700" fill="green" text-anchor="middle">
            j=0, d=0
            </text><circle cx="100" cy="250" r="5" stroke="black" stroke-width="1" fill="blue" /><circle cx="120" cy="250" r="5" stroke="black" stroke-width="1" fill="blue" /><circle cx="120" cy="280" r="5" stroke="black" stroke-width="1" fill="blue" /><circle cx="100" cy="280" r="5" stroke="black" stroke-width="1" fill="blue" /><circle cx="79.99999999999999" cy="280" r="5" stroke="black" stroke-width="1" fill="blue" /><circle cx="79.99999999999999" cy="250" r="5" stroke="black" stroke-width="1" fill="blue" /><circle cx="79.99999999999999" cy="219.99999999999997" r="5" stroke="black" stroke-width="1" fill="blue" /><circle cx="100" cy="219.99999999999997" r="5" stroke="black" stroke-width="1" fill="blue" /><circle cx="120" cy="219.99999999999997" r="5" stroke="black" stroke-width="1" fill="blue" /><circle cx="120" cy="190" r="5" stroke="black" stroke-width="1" fill="blue" /><polyline points="100,250 120,250 120,280 100,280 79.99999999999999,280 79.99999999999999,250 79.99999999999999,219.99999999999997 100,219.99999999999997 120,219.99999999999997 120,190 " fill="none" stroke="blue" stroke-width="2"/><text x="100" y="243" 
            font-size="12" font-weight="700" fill="blue" text-anchor="middle">
            j=0, d=0
            </text><circle cx="260" cy="250" r="5" stroke="black" stroke-width="1" fill="orange" /><circle cx="240" cy="250" r="5" stroke="black" stroke-width="1" fill="orange" /><circle cx="240" cy="219.99999999999997" r="5" stroke="black" stroke-width="1" fill="orange" /><circle cx="260" cy="219.99999999999997" r="5" stroke="black" stroke-width="1" fill="orange" /><circle cx="280" cy="219.99999999999997" r="5" stroke="black" stroke-width="1" fill="orange" /><circle cx="280" cy="250" r="5" stroke="black" stroke-width="1" fill="orange" /><circle cx="280" cy="280" r="5" stroke="black" stroke-width="1" fill="orange" /><circle cx="260" cy="280" r="5" stroke="black" stroke-width="1" fill="orange" /><circle cx="240" cy="280" r="5" stroke="black" stroke-width="1" fill="orange" /><circle cx="220.00000000000003" cy="280" r="5" stroke="black" stroke-width="1" fill="orange" /><polyline points="260,250 240,250 240,219.99999999999997 260,219.99999999999997 280,219.99999999999997 280,250 280,280 260,280 240,280 220.00000000000003,280 " fill="none" stroke="orange" stroke-width="2"/><text x="260" y="243" 
            font-size="12" font-weight="700" fill="orange" text-anchor="middle">
            j=0, d=0
            </text><circle cx="180" cy="250" r="5" stroke="black" stroke-width="1" fill="purple" /><circle cx="160" cy="250" r="5" stroke="black" stroke-width="1" fill="purple" /><circle cx="160" cy="219.99999999999997" r="5" stroke="black" stroke-width="1" fill="purple" /><circle cx="180" cy="219.99999999999997" r="5" stroke="black" stroke-width="1" fill="purple" /><circle cx="200" cy="219.99999999999997" r="5" stroke="black" stroke-width="1" fill="purple" /><circle cx="200" cy="250" r="5" stroke="black" stroke-width="1" fill="purple" /><circle cx="220.00000000000003" cy="250" r="5" stroke="black" stroke-width="1" fill="purple" /><circle cx="200" cy="280" r="5" stroke="black" stroke-width="1" fill="purple" /><circle cx="180" cy="280" r="5" stroke="black" stroke-width="1" fill="purple" /><circle cx="160" cy="280" r="5" stroke="black" stroke-width="1" fill="purple" /><polyline points="180,250 160,250 160,219.99999999999997 180,219.99999999999997 200,219.99999999999997 200,250 220.00000000000003,250 200,280 180,280 160,280 " fill="none" stroke="purple" stroke-width="2"/><text x="180" y="243" 
            font-size="12" font-weight="700" fill="purple" text-anchor="middle">
            j=0, d=1
            </text><circle cx="79.99999999999999" cy="160" r="5" stroke="black" stroke-width="1" fill="gold" /><circle cx="100" cy="160" r="5" stroke="black" stroke-width="1" fill="gold" /><circle cx="120" cy="160" r="5" stroke="black" stroke-width="1" fill="gold" /><circle cx="100" cy="190" r="5" stroke="black" stroke-width="1" fill="gold" /><circle cx="79.99999999999999" cy="190" r="5" stroke="black" stroke-width="1" fill="gold" /><circle cx="59.999999999999986" cy="190" r="5" stroke="black" stroke-width="1" fill="gold" /><circle cx="39.99999999999999" cy="190" r="5" stroke="black" stroke-width="1" fill="gold" /><circle cx="39.99999999999999" cy="160" r="5" stroke="black" stroke-width="1" fill="gold" /><circle cx="59.999999999999986" cy="160" r="5" stroke="black" stroke-width="1" fill="gold" /><circle cx="39.99999999999999" cy="129.99999999999997" r="5" stroke="black" stroke-width="1" fill="gold" /><polyline points="79.99999999999999,160 100,160 120,160 100,190 79.99999999999999,190 59.999999999999986,190 39.99999999999999,190 39.99999999999999,160 59.999999999999986,160 39.99999999999999,129.99999999999997 " fill="none" stroke="gold" stroke-width="2"/><text x="79.99999999999999" y="153" 
            font-size="12" font-weight="700" fill="gold" text-anchor="middle">
            j=0, d=2
            </text><circle cx="200" cy="190" r="5" stroke="black" stroke-width="1" fill="silver" /><circle cx="220.00000000000003" cy="190" r="5" stroke="black" stroke-width="1" fill="silver" /><circle cx="240" cy="190" r="5" stroke="black" stroke-width="1" fill="silver" /><circle cx="220.00000000000003" cy="219.99999999999997" r="5" stroke="black" stroke-width="1" fill="silver" /><circle cx="180" cy="190" r="5" stroke="black" stroke-width="1" fill="silver" /><circle cx="160" cy="190" r="5" stroke="black" stroke-width="1" fill="silver" /><circle cx="160" cy="160" r="5" stroke="black" stroke-width="1" fill="silver" /><circle cx="180" cy="160" r="5" stroke="black" stroke-width="1" fill="silver" /><circle cx="200" cy="160" r="5" stroke="black" stroke-width="1" fill="silver" /><polyline points="200,190 220.00000000000003,190 240,190 220.00000000000003,219.99999999999997 180,190 160,190 160,160 180,160 200,160 " fill="none" stroke="silver" stroke-width="2"/><text x="200" y="183" 
            font-size="12" font-weight="700" fill="silver" text-anchor="middle">
            j=0, d=3
            </text><circle cx="79.99999999999999" cy="129.99999999999997" r="5" stroke="black" stroke-width="1" fill="brown" /><circle cx="59.999999999999986" cy="129.99999999999997" r="5" stroke="black" stroke-width="1" fill="brown" /><circle cx="59.999999999999986" cy="100" r="5" stroke="black" stroke-width="1" fill="brown" /><circle cx="79.99999999999999" cy="100" r="5" stroke="black" stroke-width="1" fill="brown" /><circle cx="100" cy="100" r="5" stroke="black" stroke-width="1" fill="brown" /><circle cx="100" cy="129.99999999999997" r="5" stroke="black" stroke-width="1" fill="brown" /><circle cx="120" cy="129.99999999999997" r="5" stroke="black" stroke-width="1" fill="brown" /><polyline points="79.99999999999999,129.99999999999997 59.999999999999986,129.99999999999997 59.999999999999986,100 79.99999999999999,100 100,100 100,129.99999999999997 120,129.99999999999997 " fill="none" stroke="brown" stroke-width="2"/><text x="79.99999999999999" y="122.99999999999997" 
            font-size="12" font-weight="700" fill="brown" text-anchor="middle">
            j=0, d=0
            </text><circle cx="79.99999999999999" cy="39.99999999999999" r="5" stroke="black" stroke-width="1" fill="orchid" /><circle cx="39.99999999999999" cy="39.99999999999999" r="5" stroke="black" stroke-width="1" fill="orchid" /><circle cx="100" cy="39.99999999999999" r="5" stroke="black" stroke-width="1" fill="orchid" /><circle cx="120" cy="39.99999999999999" r="5" stroke="black" stroke-width="1" fill="orchid" /><circle cx="100" cy="70" r="5" stroke="black" stroke-width="1" fill="orchid" /><circle cx="79.99999999999999" cy="70" r="5" stroke="black" stroke-width="1" fill="orchid" /><circle cx="39.99999999999999" cy="100" r="5" stroke="black" stroke-width="1" fill="orchid" /><polyline points="79.99999999999999,39.99999999999999 39.99999999999999,39.99999999999999 100,39.99999999999999 120,39.99999999999999 100,70 79.99999999999999,70 39.99999999999999,100 " fill="none" stroke="orchid" stroke-width="2"/><text x="79.99999999999999" y="32.99999999999999" 
            font-size="12" font-weight="700" fill="orchid" text-anchor="middle">
            j=2, d=3
            </text><circle cx="59.999999999999986" cy="250" r="5" stroke="black" stroke-width="1" fill="teal" /><circle cx="59.999999999999986" cy="280" r="5" stroke="black" stroke-width="1" fill="teal" /><circle cx="39.99999999999999" cy="280" r="5" stroke="black" stroke-width="1" fill="teal" /><circle cx="39.99999999999999" cy="250" r="5" stroke="black" stroke-width="1" fill="teal" /><circle cx="39.99999999999999" cy="219.99999999999997" r="5" stroke="black" stroke-width="1" fill="teal" /><circle cx="59.999999999999986" cy="219.99999999999997" r="5" stroke="black" stroke-width="1" fill="teal" /><polyline points="59.999999999999986,250 59.999999999999986,280 39.99999999999999,280 39.99999999999999,250 39.99999999999999,219.99999999999997 59.999999999999986,219.99999999999997 " fill="none" stroke="teal" stroke-width="2"/><text x="59.999999999999986" y="243" 
            font-size="12" font-weight="700" fill="teal" text-anchor="middle">
            j=0, d=0
            </text><circle cx="260" cy="160" r="5" stroke="black" stroke-width="1" fill="cyan" /><circle cx="240" cy="160" r="5" stroke="black" stroke-width="1" fill="cyan" /><circle cx="260" cy="190" r="5" stroke="black" stroke-width="1" fill="cyan" /><circle cx="280" cy="190" r="5" stroke="black" stroke-width="1" fill="cyan" /><circle cx="280" cy="160" r="5" stroke="black" stroke-width="1" fill="cyan" /><circle cx="280" cy="129.99999999999997" r="5" stroke="black" stroke-width="1" fill="cyan" /><polyline points="260,160 240,160 260,190 280,190 280,160 280,129.99999999999997 " fill="none" stroke="cyan" stroke-width="2"/><text x="260" y="153" 
            font-size="12" font-weight="700" fill="cyan" text-anchor="middle">
            j=0, d=1
            </text><text x="50" y="350" 
        font-size="12" font-weight="700" text-anchor="middle">
        j=2, d=17
        </text></svg>