<svg height="400" width="400"><rect width="100%" height="100%" fill="white" /><circle cx="190.53806679700608" cy="276.1719852453214" r="5" stroke="black" stroke-width="1" fill="red" /><circle cx="318.31373247507935" cy="337.9376316950819" r="5" stroke="black" stroke-width="1" fill="red" /><circle cx="341.43150921701374" cy="305.93652654867645" r="5" stroke="black" stroke-width="1" fill="red" /><circle cx="217.78013154172095" cy="327.58796114686896" r="5" stroke="black" stroke-width="1" fill="red" /><circle cx="12.008254328116141" cy="268.3338228365103" r="5" stroke="black" stroke-width="1" fill="red" /><circle cx="25.876528947995237" cy="248.20892126113634" r="5" stroke="black" stroke-width="1" fill="red" /><circle cx="193.31399762370856" cy="357.77196668260893" r="5" stroke="black" stroke-width="1" fill="red" /><circle cx="122.66495573551444" cy="232.56210850526972" r="5" stroke="black" stroke-width="1" fill="red" /><circle cx="238.05212360114868" cy="392.7090427250461" r="5" stroke="black" stroke-width="1" fill="red" /><circle cx="314.69893448985476" cy="349.4763541950568" r="5" stroke="black" stroke-width="1" fill="red" /><circle cx="210.2912836593049" cy="41.494516033933415" r="5" stroke="black" stroke-width="1" fill="green" /><circle cx="343.0487386577762" cy="51.98390627612737" r="5" stroke="black" stroke-width="1" fill="green" /><circle cx="233.02325690769976" cy="7.758090075081103" r="5" stroke="black" stroke-width="1" fill="green" /><circle cx="180.77574327478132" cy="73.7182452511581" r="5" stroke="black" stroke-width="1" fill="green" /><circle cx="274.17651479603205" cy="37.304478719976245" r="5" stroke="black" stroke-width="1" fill="green" /><circle cx="345.53782907676106" cy="203.9091854287779" r="5" stroke="black" stroke-width="1" fill="blue" /><circle cx="351.675570782532" cy="66.55272949930078" r="5" stroke="black" stroke-width="1" fill="blue" /><circle cx="373.04341538099885" cy="320.79072731707316" r="5" stroke="black" stroke-width="1" fill="blue" /><circle cx="329.4952966909883" cy="178.460245746294" r="5" stroke="black" stroke-width="1" fill="blue" /><circle cx="331.7825177518773" cy="177.0438548403991" r="5" stroke="black" stroke-width="1" fill="blue" /></svg>