<svg height="400" width="400"><rect width="100%" height="100%" fill="white" /><circle cx="360.5418956226987" cy="162.5409072051852" r="5" stroke="black" stroke-width="1" fill="red" /><circle cx="221.09179938927514" cy="233.7606666274927" r="5" stroke="black" stroke-width="1" fill="red" /><circle cx="395.2611852246322" cy="240.29854673004962" r="5" stroke="black" stroke-width="1" fill="red" /><circle cx="166.11818584076428" cy="327.11430438636046" r="5" stroke="black" stroke-width="1" fill="red" /><circle cx="271.59291706826184" cy="99.32789656226531" r="5" stroke="black" stroke-width="1" fill="red" /><circle cx="217.91099598918314" cy="102.3117968183648" r="5" stroke="black" stroke-width="1" fill="red" /><circle cx="370.0067703492498" cy="252.65683518259002" r="5" stroke="black" stroke-width="1" fill="red" /><circle cx="211.6533319551623" cy="146.24597577620096" r="5" stroke="black" stroke-width="1" fill="red" /><circle cx="144.01539558840125" cy="333.0953507172423" r="5" stroke="black" stroke-width="1" fill="red" /><circle cx="258.7937201972251" cy="290.25546193824044" r="5" stroke="black" stroke-width="1" fill="red" /><circle cx="90.56227210036437" cy="34.57826252447296" r="5" stroke="black" stroke-width="1" fill="green" /><circle cx="74.96848591361322" cy="104.662410079803" r="5" stroke="black" stroke-width="1" fill="green" /><circle cx="73.97530208846428" cy="164.77784002481135" r="5" stroke="black" stroke-width="1" fill="green" /><circle cx="61.26505554707702" cy="165.28910864456438" r="5" stroke="black" stroke-width="1" fill="green" /><circle cx="22.09457718461776" cy="111.42886293653635" r="5" stroke="black" stroke-width="1" fill="green" /><circle cx="67.26567042577187" cy="195.80904240002593" r="5" stroke="black" stroke-width="1" fill="blue" /><circle cx="71.40117884682394" cy="341.0107716707047" r="5" stroke="black" stroke-width="1" fill="blue" /><circle cx="0.054679534630963644" cy="155.4899623884416" r="5" stroke="black" stroke-width="1" fill="blue" /><circle cx="38.47950289600277" cy="234.49958878956573" r="5" stroke="black" stroke-width="1" fill="blue" /><circle cx="44.694920326744295" cy="171.52745044763026" r="5" stroke="black" stroke-width="1" fill="blue" /></svg>