<svg height="400" width="400"><rect width="100%" height="100%" fill="white" /><circle cx="119.94533869030492" cy="341.4029440249566" r="5" stroke="black" stroke-width="1" fill="red" /><circle cx="7.601882309680352" cy="312.3320234366492" r="5" stroke="black" stroke-width="1" fill="red" /><circle cx="201.91175857710658" cy="393.92396972989354" r="5" stroke="black" stroke-width="1" fill="red" /><circle cx="242.1620283834901" cy="256.5291184975859" r="5" stroke="black" stroke-width="1" fill="red" /><circle cx="228.423866436112" cy="385.28243838776365" r="5" stroke="black" stroke-width="1" fill="red" /><circle cx="119.75120493975683" cy="346.02252316157507" r="5" stroke="black" stroke-width="1" fill="red" /><circle cx="154.4349459677452" cy="276.036865510921" r="5" stroke="black" stroke-width="1" fill="red" /><circle cx="254.94488783752303" cy="334.14511256738297" r="5" stroke="black" stroke-width="1" fill="red" /><circle cx="154.54837370899634" cy="374.4696978640645" r="5" stroke="black" stroke-width="1" fill="red" /><circle cx="110.5651639016834" cy="362.80352324482186" r="5" stroke="black" stroke-width="1" fill="red" /><circle cx="360.33804375192994" cy="325.31510587235755" r="5" stroke="black" stroke-width="1" fill="green" /><circle cx="373.8884266393555" cy="365.9794369984834" r="5" stroke="black" stroke-width="1" fill="green" /><circle cx="394.38078797265644" cy="117.4775873836337" r="5" stroke="black" stroke-width="1" fill="green" /><circle cx="335.40183895382177" cy="374.489501701978" r="5" stroke="black" stroke-width="1" fill="green" /><circle cx="369.5938353702017" cy="150.30473138931518" r="5" stroke="black" stroke-width="1" fill="green" /><circle cx="242.42927179907232" cy="213.79138160849908" r="5" stroke="black" stroke-width="1" fill="blue" /><circle cx="132.33475792015045" cy="71.85823591616503" r="5" stroke="black" stroke-width="1" fill="blue" /><circle cx="93.7114106750748" cy="14.159211717987574" r="5" stroke="black" stroke-width="1" fill="blue" /><circle cx="212.05984477279927" cy="191.3573097570044" r="5" stroke="black" stroke-width="1" fill="blue" /><circle cx="131.9731985317083" cy="196.39416813498815" r="5" stroke="black" stroke-width="1" fill="blue" /></svg>