<svg height="400" width="400"><rect width="100%" height="100%" fill="white" /><circle cx="64.2396332887187" cy="389.26837760343284" r="5" stroke="black" stroke-width="1" fill="red" /><circle cx="116.79026464848849" cy="318.5488901902687" r="5" stroke="black" stroke-width="1" fill="red" /><circle cx="27.450705064299008" cy="294.25888982463925" r="5" stroke="black" stroke-width="1" fill="red" /><circle cx="33.40364594736451" cy="370.7812307303259" r="5" stroke="black" stroke-width="1" fill="red" /><circle cx="49.454218580683396" cy="105.64257203905925" r="5" stroke="black" stroke-width="1" fill="red" /><circle cx="27.427495213146535" cy="258.24122268764967" r="5" stroke="black" stroke-width="1" fill="red" /><circle cx="179.8275620353449" cy="308.5621978218438" r="5" stroke="black" stroke-width="1" fill="red" /><circle cx="72.22927477199521" cy="369.05798752405445" r="5" stroke="black" stroke-width="1" fill="red" /><circle cx="36.19847613822378" cy="228.88119665590744" r="5" stroke="black" stroke-width="1" fill="red" /><circle cx="127.39208093779047" cy="260.7332589820563" r="5" stroke="black" stroke-width="1" fill="red" /><circle cx="184.69421246133084" cy="6.548355190813471" r="5" stroke="black" stroke-width="1" fill="green" /><circle cx="338.48640832937946" cy="6.4153374822041975" r="5" stroke="black" stroke-width="1" fill="green" /><circle cx="64.58117380318456" cy="84.95088323216481" r="5" stroke="black" stroke-width="1" fill="green" /><circle cx="398.06799709762385" cy="33.498511197255" r="5" stroke="black" stroke-width="1" fill="green" /><circle cx="224.23970391264982" cy="155.15175562975426" r="5" stroke="black" stroke-width="1" fill="green" /><circle cx="290.74187002223357" cy="351.1632919457485" r="5" stroke="black" stroke-width="1" fill="blue" /><circle cx="283.4766767824227" cy="316.5675781362002" r="5" stroke="black" stroke-width="1" fill="blue" /><circle cx="178.90644225912428" cy="344.12821591389184" r="5" stroke="black" stroke-width="1" fill="blue" /><circle cx="382.8346558392057" cy="315.2637062631025" r="5" stroke="black" stroke-width="1" fill="blue" /><circle cx="270.0277823047447" cy="193.36418068318613" r="5" stroke="black" stroke-width="1" fill="blue" /></svg>