<svg height="400" width="400"><rect width="100%" height="100%" fill="white" /><circle cx="386.6244080413589" cy="108.40257159393207" r="3" stroke="black" stroke-width="1" fill="black" /><circle cx="272.1326216779463" cy="160.87579166775274" r="3" stroke="black" stroke-width="1" fill="black" /><circle cx="254.7031619795587" cy="175.38911703240183" r="3" stroke="black" stroke-width="1" fill="black" /><circle cx="205.92022065036915" cy="132.63341921955546" r="3" stroke="black" stroke-width="1" fill="black" /><circle cx="157.095007002477" cy="120.18877743094745" r="3" stroke="black" stroke-width="1" fill="black" /><circle cx="82.97478299175944" cy="124.54705447133678" r="3" stroke="black" stroke-width="1" fill="black" /><circle cx="59.66117231727477" cy="136.8510741070823" r="3" stroke="black" stroke-width="1" fill="black" /><circle cx="23.781307027772947" cy="142.667102705862" r="3" stroke="black" stroke-width="1" fill="black" /><circle cx="94.30105403565409" cy="201.23748900605216" r="3" stroke="black" stroke-width="1" fill="black" /><circle cx="65.40307459015091" cy="212.34996616608797" r="3" stroke="black" stroke-width="1" fill="black" /><circle cx="35.43570505661711" cy="222.49208402562851" r="3" stroke="black" stroke-width="1" fill="black" /><circle cx="2.566974820068335" cy="222.05732830030857" r="3" stroke="black" stroke-width="1" fill="black" /><circle cx="76.2103790720679" cy="335.6055908958524" r="3" stroke="black" stroke-width="1" fill="black" /><circle cx="151.01726917979573" cy="306.03940863456194" r="3" stroke="black" stroke-width="1" fill="black" /><circle cx="182.43173095729847" cy="278.28502558501356" r="3" stroke="black" stroke-width="1" fill="black" /><circle cx="367.3640321662846" cy="347.2649122223501" r="3" stroke="black" stroke-width="1" fill="black" /><circle cx="385.42379169659677" cy="311.82411465614746" r="3" stroke="black" stroke-width="1" fill="black" /><circle cx="390.1899967705248" cy="313.5939876976557" r="3" stroke="black" stroke-width="1" fill="black" /><circle cx="389.15838409233237" cy="306.18375339151004" r="3" stroke="black" stroke-width="1" fill="black" /><circle cx="385.3161245107698" cy="109.25321552472252" r="3" stroke="black" stroke-width="1" fill="black" /><polygon points="386.6244080413589,108.40257159393207 272.1326216779463,160.87579166775274 254.7031619795587,175.38911703240183 205.92022065036915,132.63341921955546 157.095007002477,120.18877743094745 82.97478299175944,124.54705447133678 59.66117231727477,136.8510741070823 23.781307027772947,142.667102705862 94.30105403565409,201.23748900605216 65.40307459015091,212.34996616608797 35.43570505661711,222.49208402562851 2.566974820068335,222.05732830030857 76.2103790720679,335.6055908958524 151.01726917979573,306.03940863456194 182.43173095729847,278.28502558501356 367.3640321662846,347.2649122223501 385.42379169659677,311.82411465614746 390.1899967705248,313.5939876976557 389.15838409233237,306.18375339151004 385.3161245107698,109.25321552472252 " fill="none" stroke="black" stroke-width="2"/></svg>