<svg height="400" width="400"><rect width="100%" height="100%" fill="white" /><circle cx="110.89279906482643" cy="139.9513796378282" r="3" stroke="black" stroke-width="1" fill="black" /><circle cx="68.96033020418342" cy="95.02418584603403" r="3" stroke="black" stroke-width="1" fill="black" /><circle cx="164.51382492702652" cy="82.66331966711746" r="3" stroke="black" stroke-width="1" fill="black" /><circle cx="272.8864371895625" cy="71.5391438638953" r="3" stroke="black" stroke-width="1" fill="black" /><circle cx="306.50349314970936" cy="6.143177978531167" r="3" stroke="black" stroke-width="1" fill="black" /><circle cx="374.7352605143113" cy="8.466167284187076" r="3" stroke="black" stroke-width="1" fill="black" /><circle cx="346.00067070582645" cy="76.49043763431251" r="3" stroke="black" stroke-width="1" fill="black" /><circle cx="303.6822665286479" cy="304.49834235644886" r="3" stroke="black" stroke-width="1" fill="black" /><circle cx="291.45590175025274" cy="332.0194877513532" r="3" stroke="black" stroke-width="1" fill="black" /><circle cx="343.3701166324" cy="366.47759520497834" r="3" stroke="black" stroke-width="1" fill="black" /><circle cx="360.4608077067283" cy="399.3894506284039" r="3" stroke="black" stroke-width="1" fill="black" /><circle cx="240.03702136436047" cy="389.17810045122206" r="3" stroke="black" stroke-width="1" fill="black" /><circle cx="140.74773644518368" cy="390.04528088055014" r="3" stroke="black" stroke-width="1" fill="black" /><circle cx="163.51382884939696" cy="370.1633993883307" r="3" stroke="black" stroke-width="1" fill="black" /><circle cx="202.15177497740785" cy="344.250610288605" r="3" stroke="black" stroke-width="1" fill="black" /><circle cx="240.01558066550697" cy="322.2698057596939" r="3" stroke="black" stroke-width="1" fill="black" /><circle cx="217.88681019819265" cy="317.5303726001025" r="3" stroke="black" stroke-width="1" fill="black" /><circle cx="179.21501594428975" cy="269.3723266527057" r="3" stroke="black" stroke-width="1" fill="black" /><circle cx="153.69101727151957" cy="176.18952184025548" r="3" stroke="black" stroke-width="1" fill="black" /><circle cx="125.51026095077748" cy="178.32665478295252" r="3" stroke="black" stroke-width="1" fill="black" /><polygon points="110.89279906482643,139.9513796378282 68.96033020418342,95.02418584603403 164.51382492702652,82.66331966711746 272.8864371895625,71.5391438638953 306.50349314970936,6.143177978531167 374.7352605143113,8.466167284187076 346.00067070582645,76.49043763431251 303.6822665286479,304.49834235644886 291.45590175025274,332.0194877513532 343.3701166324,366.47759520497834 360.4608077067283,399.3894506284039 240.03702136436047,389.17810045122206 140.74773644518368,390.04528088055014 163.51382884939696,370.1633993883307 202.15177497740785,344.250610288605 240.01558066550697,322.2698057596939 217.88681019819265,317.5303726001025 179.21501594428975,269.3723266527057 153.69101727151957,176.18952184025548 125.51026095077748,178.32665478295252 " fill="none" stroke="black" stroke-width="2"/></svg>