<svg height="400" width="400"><rect width="100%" height="100%" fill="white" /><circle cx="358.8984176607764" cy="138.0190753222392" r="3" stroke="black" stroke-width="1" fill="black" /><circle cx="309.0578174617888" cy="31.340938206348046" r="3" stroke="black" stroke-width="1" fill="black" /><circle cx="252.72697260977938" cy="118.98030343385217" r="3" stroke="black" stroke-width="1" fill="black" /><circle cx="228.03677417052617" cy="81.4891455200379" r="3" stroke="black" stroke-width="1" fill="black" /><circle cx="93.74636958449827" cy="79.6511073939933" r="3" stroke="black" stroke-width="1" fill="black" /><circle cx="59.09190559392652" cy="26.75049988402698" r="3" stroke="black" stroke-width="1" fill="black" /><circle cx="57.908691643862475" cy="94.27347636318713" r="3" stroke="black" stroke-width="1" fill="black" /><circle cx="46.15669547262327" cy="150.6869700044688" r="3" stroke="black" stroke-width="1" fill="black" /><circle cx="104.5519131883343" cy="210.02260043949238" r="3" stroke="black" stroke-width="1" fill="black" /><circle cx="167.52296261095586" cy="224.44282830170695" r="3" stroke="black" stroke-width="1" fill="black" /><circle cx="122.39155894406721" cy="270.4686762261425" r="3" stroke="black" stroke-width="1" fill="black" /><circle cx="148.0031661300199" cy="303.5249727864422" r="3" stroke="black" stroke-width="1" fill="black" /><circle cx="170.22998039665208" cy="398.3816029291889" r="3" stroke="black" stroke-width="1" fill="black" /><circle cx="364.6851454120756" cy="275.15392916581635" r="3" stroke="black" stroke-width="1" fill="black" /><circle cx="280.8463887896716" cy="252.74998585553368" r="3" stroke="black" stroke-width="1" fill="black" /><circle cx="225.0042672272066" cy="166.48634163483314" r="3" stroke="black" stroke-width="1" fill="black" /><circle cx="252.86468381584973" cy="174.2299282316285" r="3" stroke="black" stroke-width="1" fill="black" /><circle cx="307.8963888873597" cy="145.36061426989474" r="3" stroke="black" stroke-width="1" fill="black" /><circle cx="324.5377960682255" cy="157.16162935137444" r="3" stroke="black" stroke-width="1" fill="black" /><circle cx="367.3204089670032" cy="143.8016401568535" r="3" stroke="black" stroke-width="1" fill="black" /><polygon points="358.8984176607764,138.0190753222392 309.0578174617888,31.340938206348046 252.72697260977938,118.98030343385217 228.03677417052617,81.4891455200379 93.74636958449827,79.6511073939933 59.09190559392652,26.75049988402698 57.908691643862475,94.27347636318713 46.15669547262327,150.6869700044688 104.5519131883343,210.02260043949238 167.52296261095586,224.44282830170695 122.39155894406721,270.4686762261425 148.0031661300199,303.5249727864422 170.22998039665208,398.3816029291889 364.6851454120756,275.15392916581635 280.8463887896716,252.74998585553368 225.0042672272066,166.48634163483314 252.86468381584973,174.2299282316285 307.8963888873597,145.36061426989474 324.5377960682255,157.16162935137444 367.3204089670032,143.8016401568535 " fill="none" stroke="black" stroke-width="2"/></svg>