<svg height="400" width="400"><rect width="100%" height="100%" fill="white" /><circle cx="214.26847573663198" cy="298.2627621575779" r="5" stroke="black" stroke-width="1" fill="red" /><circle cx="312.65787231612876" cy="379.59673207578027" r="5" stroke="black" stroke-width="1" fill="red" /><circle cx="273.94930077318736" cy="392.0788682898011" r="5" stroke="black" stroke-width="1" fill="red" /><circle cx="209.8119073385509" cy="356.27046997842945" r="5" stroke="black" stroke-width="1" fill="red" /><circle cx="135.49831280209642" cy="231.30306298719577" r="5" stroke="black" stroke-width="1" fill="red" /><circle cx="128.49272011893004" cy="248.95776012933658" r="5" stroke="black" stroke-width="1" fill="red" /><circle cx="132.9143403633074" cy="275.7666706104274" r="5" stroke="black" stroke-width="1" fill="red" /><circle cx="122.77324624611134" cy="318.0417266704642" r="5" stroke="black" stroke-width="1" fill="red" /><circle cx="76.89588581332654" cy="332.6616229024203" r="5" stroke="black" stroke-width="1" fill="red" /><circle cx="22.272110812797674" cy="311.6754710951634" r="5" stroke="black" stroke-width="1" fill="red" /><polyline points="214.26847573663198,298.2627621575779 312.65787231612876,379.59673207578027 273.94930077318736,392.0788682898011 209.8119073385509,356.27046997842945 135.49831280209642,231.30306298719577 128.49272011893004,248.95776012933658 132.9143403633074,275.7666706104274 122.77324624611134,318.0417266704642 76.89588581332654,332.6616229024203 22.272110812797674,311.6754710951634 " fill="none" stroke="red" stroke-width="2"/><text x="209.26847573663198" y="291.2627621575779" font-size="10" font-weight="700" fill="red">n=10</text><circle cx="279.3754280246511" cy="151.0747022911769" r="5" stroke="black" stroke-width="1" fill="green" /><circle cx="366.9399668235406" cy="153.6214073744028" r="5" stroke="black" stroke-width="1" fill="green" /><circle cx="329.67438052678267" cy="46.42049499624336" r="5" stroke="black" stroke-width="1" fill="green" /><circle cx="304.6728105134755" cy="105.86857229247232" r="5" stroke="black" stroke-width="1" fill="green" /><circle cx="254.97807643149218" cy="135.74397123985946" r="5" stroke="black" stroke-width="1" fill="green" /><circle cx="234.76405404548916" cy="159.96590954563726" r="5" stroke="black" stroke-width="1" fill="green" /><circle cx="232.96719816879968" cy="207.42997612950145" r="5" stroke="black" stroke-width="1" fill="green" /><circle cx="217.33104049562462" cy="245.266215307612" r="5" stroke="black" stroke-width="1" fill="green" /><circle cx="244.1613251654399" cy="237.28007014746336" r="5" stroke="black" stroke-width="1" fill="green" /><circle cx="279.2505351849025" cy="255.33933829162177" r="5" stroke="black" stroke-width="1" fill="green" /><polyline points="279.3754280246511,151.0747022911769 366.9399668235406,153.6214073744028 329.67438052678267,46.42049499624336 304.6728105134755,105.86857229247232 254.97807643149218,135.74397123985946 234.76405404548916,159.96590954563726 232.96719816879968,207.42997612950145 217.33104049562462,245.266215307612 244.1613251654399,237.28007014746336 279.2505351849025,255.33933829162177 " fill="none" stroke="green" stroke-width="2"/><text x="274.3754280246511" y="144.0747022911769" font-size="10" font-weight="700" fill="green">n=10</text><circle cx="75.46177465159083" cy="59.25920212835969" r="5" stroke="black" stroke-width="1" fill="blue" /><circle cx="54.85043932907967" cy="22.65000751018249" r="5" stroke="black" stroke-width="1" fill="blue" /><circle cx="51.77421519994327" cy="16.774739986583675" r="5" stroke="black" stroke-width="1" fill="blue" /><circle cx="81.0524400266388" cy="31.85636336161597" r="5" stroke="black" stroke-width="1" fill="blue" /><circle cx="94.34967049560781" cy="49.880091218471364" r="5" stroke="black" stroke-width="1" fill="blue" /><circle cx="166.5499930327563" cy="122.97245397044793" r="5" stroke="black" stroke-width="1" fill="blue" /><circle cx="85.01777856584995" cy="114.05764024313108" r="5" stroke="black" stroke-width="1" fill="blue" /><circle cx="70.4559309034674" cy="116.9433039707573" r="5" stroke="black" stroke-width="1" fill="blue" /><circle cx="31.876869992544954" cy="190.1389989832791" r="5" stroke="black" stroke-width="1" fill="blue" /><circle cx="117.53299927056551" cy="213.77132525515316" r="5" stroke="black" stroke-width="1" fill="blue" /><polyline points="75.46177465159083,59.25920212835969 54.85043932907967,22.65000751018249 51.77421519994327,16.774739986583675 81.0524400266388,31.85636336161597 94.34967049560781,49.880091218471364 166.5499930327563,122.97245397044793 85.01777856584995,114.05764024313108 70.4559309034674,116.9433039707573 31.876869992544954,190.1389989832791 117.53299927056551,213.77132525515316 " fill="none" stroke="blue" stroke-width="2"/><text x="70.46177465159083" y="52.25920212835969" font-size="10" font-weight="700" fill="blue">n=10</text></svg>