<svg height="400" width="400"><rect width="100%" height="100%" fill="white" /><circle cx="112.38486688883933" cy="22.24926297070171" r="5" stroke="black" stroke-width="1" fill="red" /><circle cx="74.78870106195457" cy="22.87354600057574" r="5" stroke="black" stroke-width="1" fill="red" /><circle cx="50.60008763818491" cy="18.674674917732936" r="5" stroke="black" stroke-width="1" fill="red" /><circle cx="22.856894159998298" cy="69.71820953941705" r="5" stroke="black" stroke-width="1" fill="red" /><circle cx="29.712133526244155" cy="88.75819746902476" r="5" stroke="black" stroke-width="1" fill="red" /><circle cx="25.730884839014223" cy="171.28904050070446" r="5" stroke="black" stroke-width="1" fill="red" /><circle cx="58.013125148869364" cy="153.15403227502625" r="5" stroke="black" stroke-width="1" fill="red" /><circle cx="90.81282711378336" cy="170.36669301523082" r="5" stroke="black" stroke-width="1" fill="red" /><circle cx="124.61779801643785" cy="62.784593158293944" r="5" stroke="black" stroke-width="1" fill="red" /><circle cx="187.56888736893725" cy="2.644288269178219" r="5" stroke="black" stroke-width="1" fill="red" /><polyline points="112.38486688883933,22.24926297070171 74.78870106195457,22.87354600057574 50.60008763818491,18.674674917732936 22.856894159998298,69.71820953941705 29.712133526244155,88.75819746902476 25.730884839014223,171.28904050070446 58.013125148869364,153.15403227502625 90.81282711378336,170.36669301523082 124.61779801643785,62.784593158293944 187.56888736893725,2.644288269178219 " fill="none" stroke="red" stroke-width="2"/><circle cx="333.52737588925044" cy="303.0422106196596" r="5" stroke="black" stroke-width="1" fill="green" /><circle cx="282.52061327288953" cy="339.8689483957946" r="5" stroke="black" stroke-width="1" fill="green" /><circle cx="300.516407798921" cy="267.4246000663092" r="5" stroke="black" stroke-width="1" fill="green" /><circle cx="247.35925734137288" cy="199.9970701686866" r="5" stroke="black" stroke-width="1" fill="green" /><circle cx="323.67590984914284" cy="239.05126948846336" r="5" stroke="black" stroke-width="1" fill="green" /><circle cx="358.6007768947479" cy="209.21063378861237" r="5" stroke="black" stroke-width="1" fill="green" /><circle cx="379.3514706327108" cy="206.34727438152592" r="5" stroke="black" stroke-width="1" fill="green" /><circle cx="337.0737677846482" cy="191.88747288252372" r="5" stroke="black" stroke-width="1" fill="green" /><circle cx="327.754521981407" cy="151.6436200581813" r="5" stroke="black" stroke-width="1" fill="green" /><circle cx="366.62561511684623" cy="66.21903892945697" r="5" stroke="black" stroke-width="1" fill="green" /><polyline points="333.52737588925044,303.0422106196596 282.52061327288953,339.8689483957946 300.516407798921,267.4246000663092 247.35925734137288,199.9970701686866 323.67590984914284,239.05126948846336 358.6007768947479,209.21063378861237 379.3514706327108,206.34727438152592 337.0737677846482,191.88747288252372 327.754521981407,151.6436200581813 366.62561511684623,66.21903892945697 " fill="none" stroke="green" stroke-width="2"/><circle cx="171.33421706318987" cy="226.32952531545197" r="5" stroke="black" stroke-width="1" fill="blue" /><circle cx="221.5216271417771" cy="182.6365010635528" r="5" stroke="black" stroke-width="1" fill="blue" /><circle cx="262.24540889162125" cy="339.1290266913346" r="5" stroke="black" stroke-width="1" fill="blue" /><circle cx="97.9316579009483" cy="398.4717011263682" r="5" stroke="black" stroke-width="1" fill="blue" /><circle cx="41.112536955066844" cy="350.68891632843855" r="5" stroke="black" stroke-width="1" fill="blue" /><circle cx="80.42939437472248" cy="328.9112271010553" r="5" stroke="black" stroke-width="1" fill="blue" /><circle cx="64.33718237425872" cy="321.509287900946" r="5" stroke="black" stroke-width="1" fill="blue" /><circle cx="57.98331412142561" cy="267.7211788109277" r="5" stroke="black" stroke-width="1" fill="blue" /><circle cx="42.236716555969345" cy="241.60702253183564" r="5" stroke="black" stroke-width="1" fill="blue" /><circle cx="32.831696994876935" cy="197.83558733617932" r="5" stroke="black" stroke-width="1" fill="blue" /><polyline points="171.33421706318987,226.32952531545197 221.5216271417771,182.6365010635528 262.24540889162125,339.1290266913346 97.9316579009483,398.4717011263682 41.112536955066844,350.68891632843855 80.42939437472248,328.9112271010553 64.33718237425872,321.509287900946 57.98331412142561,267.7211788109277 42.236716555969345,241.60702253183564 32.831696994876935,197.83558733617932 " fill="none" stroke="blue" stroke-width="2"/></svg>