<svg height="400" width="400"><rect width="100%" height="100%" fill="white" /><circle cx="126.44643482079898" cy="164.97706066543802" r="5" stroke="black" stroke-width="1" fill="red" /><circle cx="237.8196550649328" cy="359.16563745922457" r="5" stroke="black" stroke-width="1" fill="red" /><circle cx="128.56411712029114" cy="317.7099416670381" r="5" stroke="black" stroke-width="1" fill="red" /><circle cx="90.07520659605399" cy="334.0874899407494" r="5" stroke="black" stroke-width="1" fill="red" /><circle cx="52.835807985507266" cy="370.8202895867796" r="5" stroke="black" stroke-width="1" fill="red" /><circle cx="43.316541708255585" cy="342.94859357530027" r="5" stroke="black" stroke-width="1" fill="red" /><circle cx="5.04499189170744" cy="250.4589166091014" r="5" stroke="black" stroke-width="1" fill="red" /><circle cx="65.60307760851902" cy="183.19805746509" r="5" stroke="black" stroke-width="1" fill="red" /><circle cx="68.51815436927824" cy="144.3423947866079" r="5" stroke="black" stroke-width="1" fill="red" /><circle cx="146.19599843443217" cy="142.1701038742129" r="5" stroke="black" stroke-width="1" fill="red" /><polygon points="126.44643482079898,164.97706066543802 237.8196550649328,359.16563745922457 128.56411712029114,317.7099416670381 90.07520659605399,334.0874899407494 52.835807985507266,370.8202895867796 43.316541708255585,342.94859357530027 5.04499189170744,250.4589166091014 65.60307760851902,183.19805746509 68.51815436927824,144.3423947866079 146.19599843443217,142.1701038742129 " fill="none" stroke="red" stroke-width="2"/><circle cx="265.48769969216187" cy="17.967924518450573" r="5" stroke="black" stroke-width="1" fill="green" /><circle cx="358.65146969775907" cy="75.99506330390594" r="5" stroke="black" stroke-width="1" fill="green" /><circle cx="312.44755972078656" cy="71.73925919651668" r="5" stroke="black" stroke-width="1" fill="green" /><circle cx="221.58752107298793" cy="41.97902525461359" r="5" stroke="black" stroke-width="1" fill="green" /><circle cx="140.75060013776604" cy="5.825329963560666" r="5" stroke="black" stroke-width="1" fill="green" /><polygon points="265.48769969216187,17.967924518450573 358.65146969775907,75.99506330390594 312.44755972078656,71.73925919651668 221.58752107298793,41.97902525461359 140.75060013776604,5.825329963560666 " fill="none" stroke="green" stroke-width="2"/><circle cx="283.6480732631142" cy="337.0769384642357" r="5" stroke="black" stroke-width="1" fill="blue" /><circle cx="263.23880440781784" cy="176.9943358607688" r="5" stroke="black" stroke-width="1" fill="blue" /><circle cx="365.1332579038292" cy="162.30423829017386" r="5" stroke="black" stroke-width="1" fill="blue" /><circle cx="318.97649298226264" cy="248.8836102543857" r="5" stroke="black" stroke-width="1" fill="blue" /><circle cx="373.5670422179858" cy="354.78391509595326" r="5" stroke="black" stroke-width="1" fill="blue" /><polygon points="283.6480732631142,337.0769384642357 263.23880440781784,176.9943358607688 365.1332579038292,162.30423829017386 318.97649298226264,248.8836102543857 373.5670422179858,354.78391509595326 " fill="none" stroke="blue" stroke-width="2"/></svg>