<svg height="400" width="400"><rect width="100%" height="100%" fill="white" /><circle cx="14.697038058970158" cy="253.39437165985618" r="5" stroke="black" stroke-width="1" fill="red" /><circle cx="13.427316775307219" cy="218.8586838733686" r="5" stroke="black" stroke-width="1" fill="red" /><circle cx="52.04886662085046" cy="128.6214118704642" r="5" stroke="black" stroke-width="1" fill="red" /><circle cx="13.033090464959596" cy="21.96503048829941" r="5" stroke="black" stroke-width="1" fill="red" /><circle cx="10.34618836269141" cy="7.498326693512425" r="5" stroke="black" stroke-width="1" fill="red" /><circle cx="40.62780501988472" cy="8.069497563998329" r="5" stroke="black" stroke-width="1" fill="red" /><circle cx="41.769891749194784" cy="12.243268684709374" r="5" stroke="black" stroke-width="1" fill="red" /><circle cx="39.330191263987935" cy="14.901634225431248" r="5" stroke="black" stroke-width="1" fill="red" /><circle cx="149.9675809417707" cy="159.34246097667372" r="5" stroke="black" stroke-width="1" fill="red" /><circle cx="3.088770669760965" cy="280.1466820657623" r="5" stroke="black" stroke-width="1" fill="red" /><polygon points="14.697038058970158,253.39437165985618 13.427316775307219,218.8586838733686 52.04886662085046,128.6214118704642 13.033090464959596,21.96503048829941 10.34618836269141,7.498326693512425 40.62780501988472,8.069497563998329 41.769891749194784,12.243268684709374 39.330191263987935,14.901634225431248 149.9675809417707,159.34246097667372 3.088770669760965,280.1466820657623 " fill="none" stroke="red" stroke-width="2"/><circle cx="299.3794766809689" cy="290.38740111699985" r="5" stroke="black" stroke-width="1" fill="green" /><circle cx="351.2474559305607" cy="332.07661052733073" r="5" stroke="black" stroke-width="1" fill="green" /><circle cx="304.09956832881954" cy="382.6603726518294" r="5" stroke="black" stroke-width="1" fill="green" /><circle cx="265.8837500253482" cy="365.8602437850274" r="5" stroke="black" stroke-width="1" fill="green" /><circle cx="231.28068760707913" cy="383.6596794181102" r="5" stroke="black" stroke-width="1" fill="green" /><circle cx="151.79407866151396" cy="386.02945215256534" r="5" stroke="black" stroke-width="1" fill="green" /><circle cx="92.1461921363302" cy="380.8556744659626" r="5" stroke="black" stroke-width="1" fill="green" /><circle cx="61.918024863213006" cy="314.1190071100743" r="5" stroke="black" stroke-width="1" fill="green" /><circle cx="221.348707585833" cy="299.7972696355442" r="5" stroke="black" stroke-width="1" fill="green" /><circle cx="249.96721729349272" cy="220.01170700077967" r="5" stroke="black" stroke-width="1" fill="green" /><polygon points="299.3794766809689,290.38740111699985 351.2474559305607,332.07661052733073 304.09956832881954,382.6603726518294 265.8837500253482,365.8602437850274 231.28068760707913,383.6596794181102 151.79407866151396,386.02945215256534 92.1461921363302,380.8556744659626 61.918024863213006,314.1190071100743 221.348707585833,299.7972696355442 249.96721729349272,220.01170700077967 " fill="none" stroke="green" stroke-width="2"/><circle cx="186.46079988495927" cy="103.1229852719421" r="5" stroke="black" stroke-width="1" fill="blue" /><circle cx="177.7103393894932" cy="151.5858700112082" r="5" stroke="black" stroke-width="1" fill="blue" /><circle cx="241.60391676697532" cy="185.68880380077798" r="5" stroke="black" stroke-width="1" fill="blue" /><circle cx="351.6208247388317" cy="147.73725059081545" r="5" stroke="black" stroke-width="1" fill="blue" /><circle cx="384.45313570111904" cy="99.045503441996" r="5" stroke="black" stroke-width="1" fill="blue" /><circle cx="370.58659826850555" cy="35.442979202754984" r="5" stroke="black" stroke-width="1" fill="blue" /><circle cx="343.67097030258236" cy="42.83913140510389" r="5" stroke="black" stroke-width="1" fill="blue" /><circle cx="310.17227378484995" cy="96.37664464357032" r="5" stroke="black" stroke-width="1" fill="blue" /><circle cx="179.48372576090915" cy="52.84662640919686" r="5" stroke="black" stroke-width="1" fill="blue" /><circle cx="155.57334441752556" cy="97.87290787208356" r="5" stroke="black" stroke-width="1" fill="blue" /><polygon points="186.46079988495927,103.1229852719421 177.7103393894932,151.5858700112082 241.60391676697532,185.68880380077798 351.6208247388317,147.73725059081545 384.45313570111904,99.045503441996 370.58659826850555,35.442979202754984 343.67097030258236,42.83913140510389 310.17227378484995,96.37664464357032 179.48372576090915,52.84662640919686 155.57334441752556,97.87290787208356 " fill="none" stroke="blue" stroke-width="2"/></svg>