<svg height="400" width="400"><rect width="100%" height="100%" fill="white" /><circle cx="219.30702344304703" cy="77.48156530807373" r="5" stroke="black" stroke-width="1" fill="red" /><circle cx="174.90824759413988" cy="126.45542200535714" r="5" stroke="black" stroke-width="1" fill="red" /><circle cx="245.90128107914646" cy="127.14203265561927" r="5" stroke="black" stroke-width="1" fill="red" /><circle cx="258.7958972525516" cy="128.72962435326363" r="5" stroke="black" stroke-width="1" fill="red" /><circle cx="257.9168985312588" cy="157.47092347630672" r="5" stroke="black" stroke-width="1" fill="red" /><circle cx="273.12569925938453" cy="145.45902023294576" r="5" stroke="black" stroke-width="1" fill="red" /><circle cx="315.86986496647205" cy="88.91112687835347" r="5" stroke="black" stroke-width="1" fill="red" /><circle cx="333.32535380337436" cy="97.16140345214832" r="5" stroke="black" stroke-width="1" fill="red" /><circle cx="355.8118254829183" cy="140.5474224901514" r="5" stroke="black" stroke-width="1" fill="red" /><circle cx="354.1615975080014" cy="163.20850750391358" r="5" stroke="black" stroke-width="1" fill="red" /><polyline points="219.30702344304703,77.48156530807373 174.90824759413988,126.45542200535714 245.90128107914646,127.14203265561927 258.7958972525516,128.72962435326363 257.9168985312588,157.47092347630672 273.12569925938453,145.45902023294576 315.86986496647205,88.91112687835347 333.32535380337436,97.16140345214832 355.8118254829183,140.5474224901514 354.1615975080014,163.20850750391358 " fill="none" stroke="red" stroke-width="2"/><circle cx="220.50760746425436" cy="319.7850157518393" r="5" stroke="black" stroke-width="1" fill="green" /><circle cx="231.09715247941213" cy="378.73193373348084" r="5" stroke="black" stroke-width="1" fill="green" /><circle cx="288.88438750438087" cy="333.41115314412633" r="5" stroke="black" stroke-width="1" fill="green" /><circle cx="326.2338775745798" cy="342.30898429765233" r="5" stroke="black" stroke-width="1" fill="green" /><circle cx="356.1081453797902" cy="369.4960198354333" r="5" stroke="black" stroke-width="1" fill="green" /><circle cx="388.20228284377345" cy="293.6163391960144" r="5" stroke="black" stroke-width="1" fill="green" /><circle cx="364.93792042929175" cy="264.87817222738954" r="5" stroke="black" stroke-width="1" fill="green" /><circle cx="309.2484864277883" cy="284.95496258060973" r="5" stroke="black" stroke-width="1" fill="green" /><circle cx="315.14571841361993" cy="219.67233767327627" r="5" stroke="black" stroke-width="1" fill="green" /><circle cx="247.7561475552064" cy="251.79496745881414" r="5" stroke="black" stroke-width="1" fill="green" /><polyline points="220.50760746425436,319.7850157518393 231.09715247941213,378.73193373348084 288.88438750438087,333.41115314412633 326.2338775745798,342.30898429765233 356.1081453797902,369.4960198354333 388.20228284377345,293.6163391960144 364.93792042929175,264.87817222738954 309.2484864277883,284.95496258060973 315.14571841361993,219.67233767327627 247.7561475552064,251.79496745881414 " fill="none" stroke="green" stroke-width="2"/><circle cx="60.94625552116612" cy="103.10869618912042" r="5" stroke="black" stroke-width="1" fill="blue" /><circle cx="32.37607605337294" cy="24.319896419981557" r="5" stroke="black" stroke-width="1" fill="blue" /><circle cx="78.33645609503881" cy="57.93286918542595" r="5" stroke="black" stroke-width="1" fill="blue" /><circle cx="93.9086431585598" cy="106.77770811474537" r="5" stroke="black" stroke-width="1" fill="blue" /><circle cx="74.8379911932635" cy="149.36665260781004" r="5" stroke="black" stroke-width="1" fill="blue" /><circle cx="177.5267810669532" cy="182.11189694135487" r="5" stroke="black" stroke-width="1" fill="blue" /><circle cx="145.7462700177776" cy="246.1055057865801" r="5" stroke="black" stroke-width="1" fill="blue" /><circle cx="121.8501775155575" cy="279.828635146257" r="5" stroke="black" stroke-width="1" fill="blue" /><circle cx="73.19310332314598" cy="320.03008171581115" r="5" stroke="black" stroke-width="1" fill="blue" /><circle cx="21.5936795614029" cy="325.9323349730277" r="5" stroke="black" stroke-width="1" fill="blue" /><polyline points="60.94625552116612,103.10869618912042 32.37607605337294,24.319896419981557 78.33645609503881,57.93286918542595 93.9086431585598,106.77770811474537 74.8379911932635,149.36665260781004 177.5267810669532,182.11189694135487 145.7462700177776,246.1055057865801 121.8501775155575,279.828635146257 73.19310332314598,320.03008171581115 21.5936795614029,325.9323349730277 " fill="none" stroke="blue" stroke-width="2"/></svg>