<svg height="400" width="400"><rect width="100%" height="100%" fill="white" /><circle cx="353.78863570845647" cy="16.29040147969807" r="5" stroke="black" stroke-width="1" fill="red" /><circle cx="301.201953093561" cy="44.9373026617839" r="5" stroke="black" stroke-width="1" fill="red" /><circle cx="256.388539412569" cy="52.198665629270465" r="5" stroke="black" stroke-width="1" fill="red" /><circle cx="267.67512368552195" cy="93.23890768648582" r="5" stroke="black" stroke-width="1" fill="red" /><circle cx="302.42110548621895" cy="90.45036269514677" r="5" stroke="black" stroke-width="1" fill="red" /><circle cx="332.9675724390107" cy="100.27613876951413" r="5" stroke="black" stroke-width="1" fill="red" /><circle cx="277.38124531655507" cy="124.89728382147894" r="5" stroke="black" stroke-width="1" fill="red" /><circle cx="244.2574761207175" cy="137.98223464903216" r="5" stroke="black" stroke-width="1" fill="red" /><circle cx="252.13054093840813" cy="153.40222447510445" r="5" stroke="black" stroke-width="1" fill="red" /><circle cx="188.78257607709256" cy="180.9161475973263" r="5" stroke="black" stroke-width="1" fill="red" /><polyline points="353.78863570845647,16.29040147969807 301.201953093561,44.9373026617839 256.388539412569,52.198665629270465 267.67512368552195,93.23890768648582 302.42110548621895,90.45036269514677 332.9675724390107,100.27613876951413 277.38124531655507,124.89728382147894 244.2574761207175,137.98223464903216 252.13054093840813,153.40222447510445 188.78257607709256,180.9161475973263 " fill="none" stroke="red" stroke-width="2"/><circle cx="387.7598327639856" cy="354.8925313811316" r="5" stroke="black" stroke-width="1" fill="green" /><circle cx="346.3273108472766" cy="353.0327836608827" r="5" stroke="black" stroke-width="1" fill="green" /><circle cx="332.78964431741446" cy="335.7769900104889" r="5" stroke="black" stroke-width="1" fill="green" /><circle cx="225.1898364982151" cy="376.6910055820342" r="5" stroke="black" stroke-width="1" fill="green" /><circle cx="45.58958593519948" cy="370.4988233782201" r="5" stroke="black" stroke-width="1" fill="green" /><circle cx="148.31040500156166" cy="264.6070684463371" r="5" stroke="black" stroke-width="1" fill="green" /><circle cx="183.1596059268863" cy="240.32507236929996" r="5" stroke="black" stroke-width="1" fill="green" /><circle cx="321.5401645917142" cy="235.5197069425012" r="5" stroke="black" stroke-width="1" fill="green" /><circle cx="371.69241541188757" cy="225.85262311140113" r="5" stroke="black" stroke-width="1" fill="green" /><circle cx="340.07332272057863" cy="174.6005474351322" r="5" stroke="black" stroke-width="1" fill="green" /><polyline points="387.7598327639856,354.8925313811316 346.3273108472766,353.0327836608827 332.78964431741446,335.7769900104889 225.1898364982151,376.6910055820342 45.58958593519948,370.4988233782201 148.31040500156166,264.6070684463371 183.1596059268863,240.32507236929996 321.5401645917142,235.5197069425012 371.69241541188757,225.85262311140113 340.07332272057863,174.6005474351322 " fill="none" stroke="green" stroke-width="2"/><circle cx="4.002152648499546" cy="231.72703710238548" r="5" stroke="black" stroke-width="1" fill="blue" /><circle cx="4.945584028694494" cy="281.9614345085164" r="5" stroke="black" stroke-width="1" fill="blue" /><circle cx="65.13601604710315" cy="258.47197530193915" r="5" stroke="black" stroke-width="1" fill="blue" /><circle cx="134.7116099985481" cy="240.76605000577595" r="5" stroke="black" stroke-width="1" fill="blue" /><circle cx="142.38635835983774" cy="159.1315733067719" r="5" stroke="black" stroke-width="1" fill="blue" /><circle cx="134.80682948710668" cy="160.067676703882" r="5" stroke="black" stroke-width="1" fill="blue" /><circle cx="70.22853204809181" cy="168.5727050076859" r="5" stroke="black" stroke-width="1" fill="blue" /><circle cx="5.517199738838308" cy="170.31507654359376" r="5" stroke="black" stroke-width="1" fill="blue" /><circle cx="57.02449932736808" cy="83.08351059944118" r="5" stroke="black" stroke-width="1" fill="blue" /><circle cx="44.638606846087555" cy="60.48886193036802" r="5" stroke="black" stroke-width="1" fill="blue" /><polyline points="4.002152648499546,231.72703710238548 4.945584028694494,281.9614345085164 65.13601604710315,258.47197530193915 134.7116099985481,240.76605000577595 142.38635835983774,159.1315733067719 134.80682948710668,160.067676703882 70.22853204809181,168.5727050076859 5.517199738838308,170.31507654359376 57.02449932736808,83.08351059944118 44.638606846087555,60.48886193036802 " fill="none" stroke="blue" stroke-width="2"/></svg>